<svg xmlns="http://www.w3.org/2000/svg" xmlns:xlink="http://www.w3.org/1999/xlink" viewBox="0 0 29.3 29.3"><defs><style>.cls-1{fill:none;}.cls-2{isolation:isolate;}.cls-3{clip-path:url(#clip-path);}.cls-4{clip-path:url(#clip-path-2);}.cls-5{clip-path:url(#clip-path-3);}.cls-6{opacity:0.49;}.cls-6,.cls-7{mix-blend-mode:screen;}.cls-7{opacity:0.63;}.cls-8{fill:#39363a;}.cls-9{fill:#fff;}.cls-10{fill:url(#linear-gradient);}.cls-11{fill:url(#linear-gradient-2);}.cls-12{fill:url(#linear-gradient-3);}</style><clipPath id="clip-path"><rect class="cls-1" x="-1464.32" y="-1236.54" width="1200" height="4720.23"></rect></clipPath><clipPath id="clip-path-2"><path class="cls-1" d="M159.23,625.38,57.14,609.76,165.28-2.44c-1.49-4.72-3.52-10.74-6.05-17.95-59.61-169.56-395.71-994.68-395.71-994.68-45.38,266.49-436.83,508.85-757.68,433.21s-489.9,88.33-489.9,88.33l-116.81,203.79L-1798,54.21l-121.15,685.85c-83.35,205-167.76,413.77-172.48,430.24-4.64,16.18-7,302-8.21,592.75l-1.25,7.07,1.22.19c-1.22,299.56-1.22,601.92-1.22,617.43,0,1.54,1,5.47,2.93,11.57,1.49,4.72,3.53,10.75,6,18,59.62,169.59,395.7,994.68,395.7,994.68,45.39-266.49,436.84-508.85,757.69-433.2,186.94,44.07,385.68,19.65,512.09-136.57,58-71.72,99.08-157.43,144-237.13,49.31-87.41,97.78-175.29,147.69-262.37L165.28,643.32l2.93-16.57Z"></path></clipPath><clipPath id="clip-path-3"><rect id="SVGID" class="cls-1" x="-1904.06" y="-704.98" width="2087.59" height="1391.72" transform="translate(-869.39 851.15) rotate(90)"></rect></clipPath><linearGradient id="linear-gradient" x1="7.19" y1="18.53" x2="22.11" y2="18.53" gradientUnits="userSpaceOnUse"><stop offset="0" stop-color="#ff8115"></stop><stop offset="1" stop-color="#fff915"></stop></linearGradient><linearGradient id="linear-gradient-2" x1="22.27" y1="20.54" x2="9.75" y2="20.54" xlink:href="#linear-gradient"></linearGradient><linearGradient id="linear-gradient-3" x1="14.51" y1="15.17" x2="7.63" y2="15.17" xlink:href="#linear-gradient"></linearGradient></defs><g class="cls-2"><g id="Layer_1" data-name="Layer 1"><circle class="cls-8" cx="14.65" cy="14.65" r="14.65"></circle><path class="cls-9" d="M19.89,15.76H18.44V11a3.79,3.79,0,0,0-7.58,0v4.79H9.41V11a5.24,5.24,0,0,1,10.48,0Z"></path><rect class="cls-10" x="7.19" y="13.48" width="14.92" height="10.08" rx="0.56"></rect><path class="cls-11" d="M22.11,23V17.52C17.56,21.36,11,22.8,7.3,23.33a.53.53,0,0,0,.45.24H21.54A.57.57,0,0,0,22.11,23Z"></path><path class="cls-8" d="M15.88,17a1.24,1.24,0,1,0-2.47,0,1.25,1.25,0,0,0,.5,1l-.39,2.78h2.25L15.38,18A1.25,1.25,0,0,0,15.88,17Z"></path><path class="cls-12" d="M7.66,14.55v1.93a2.62,2.62,0,0,1,2.91-2.61H8.33A.68.68,0,0,0,7.66,14.55Z"></path></g></g></svg>